<svg xmlns="http://www.w3.org/2000/svg" viewBox="0 0 338.24 71.95"><defs><style>.a{fill:#ea2026;}.b{fill:#999b9f;}.c{fill:#fff;}</style></defs><title>vspj-logo</title><rect class="a" x="233.15" width="30.69" height="30.69"/><rect class="a" x="270.35" width="30.69" height="30.69"/><rect class="a" x="307.54" width="30.69" height="30.69"/><rect class="b" x="307.54" y="37.2" width="30.69" height="30.69"/><polyline class="c" points="241.99 9.52 246.06 9.52 248.3 18.12 248.47 19.51 248.6 19.51 248.76 18.12 250.97 9.52 254.4 9.52 250.42 22.63 246.3 22.63 241.99 9.52"/><path class="c" d="M282.27,5.81h2.28L285.72,7l1.16-1.19h2.3L286.3,8.62H285l-2.7-2.81m-2,14.12,2.26-1.62c.2,1.19,1.32,1.89,3.14,1.89,1.17,0,1.95-.46,1.95-1,0-1-.57-1.16-3.09-1.65-3-.61-4.19-2.11-4.19-4,0-2.66,2-4.19,5.46-4.19,2.75,0,4.06.77,4.7,2.94l-2.26,1.62c-.22-1.25-1-1.95-2.79-1.95-1.25,0-1.72.48-1.72,1.08,0,.77.51.94,2.22,1.23,3.67.64,5,1.89,5,4.5s-2.22,4.13-5.67,4.13C282.45,22.84,280.85,22,280.23,19.93Z"/><path class="c" d="M323.34,15.2a1.57,1.57,0,0,0,1.74-1.62c0-1-.68-1.56-1.74-1.56h-1.71V15.2h1.71m-5.29-5.67h5.47c3.71,0,5.2,1.6,5.2,4.2s-2.26,4-5.16,4h-1.93v4.9h-3.58Z"/><path class="c" d="M317.06,57.31l1.85-1.56c.15.59.61.86,1.34.86s1.38-.33,1.38-1.27V46.09h3.62v9.49c0,2.06-1.5,3.84-4.9,3.84-1.52,0-2.86-.53-3.29-2.11"/><polyline class="b" points="0 54.33 3.46 54.33 6.2 63.89 6.38 65.17 6.5 65.17 6.69 63.89 9.41 54.33 12.33 54.33 8.06 67.82 4.51 67.82 0 54.33"/><path class="b" d="M20.47,59,16.11,70.39a2.41,2.41,0,0,1-2.53,1.53,5.11,5.11,0,0,1-.77,0V70.14a1.4,1.4,0,0,0,.38,0,.93.93,0,0,0,.91-.72l.68-1.76a.46.46,0,0,1-.42-.3L11.14,59h3.1l1.59,5.31.15.79h.09l.13-.79L17.81,59h2.66"/><path class="b" d="M20.74,65.89l1.7-1.17c.06,1.06.79,1.66,2.08,1.66,1.1,0,1.55-.45,1.55-.91s-.25-.79-1.89-1C21.89,64.17,21,63.06,21,61.6c0-1.61,1.4-2.95,3.72-2.95,2.1,0,3.27.75,3.63,2.15l-1.66,1.1c0-1-.74-1.57-1.85-1.57-1,0-1.42.34-1.42.83s.23.74,1.76.95c2.49.34,3.42,1.3,3.42,3C28.63,67,27,68,24.59,68s-3.51-.89-3.85-2.15"/><path class="b" d="M36,63.3c0-1.64-.47-2.83-1.74-2.83s-1.74,1.19-1.74,2.83.51,2.85,1.74,2.85S36,65,36,63.3m-6.37,0a4.29,4.29,0,0,1,4.63-4.65,4.31,4.31,0,0,1,4.65,4.65A4.4,4.4,0,0,1,34.26,68,4.37,4.37,0,0,1,29.63,63.3Z"/><polyline class="b" points="40.49 54.26 43.29 53.77 43.29 61.49 43.21 62.51 43.27 62.51 43.69 61.72 45.75 59 48.45 59 45.8 62.17 48.77 67.82 45.97 67.82 44.08 64.13 43.29 65.08 43.29 67.82 40.49 67.82 40.49 54.26"/><path class="b" d="M54.6,54.33h2.55l-3.32,3.38H52l2.62-3.38m.27,10.28V63.34c-1.76.11-2.91.55-2.91,1.74a1.13,1.13,0,0,0,1.27,1.19A1.51,1.51,0,0,0,54.87,64.61Zm-5.48.66c0-1.91,1.8-3.34,5.48-3.4,0-1-.55-1.53-1.64-1.53s-1.81.51-1.83,1.57l-1.53-1c.32-1.51,1.53-2.23,3.57-2.23,2.36,0,4.21,1,4.21,3.53v4a1,1,0,0,0,.57,1l-1.64.94a1.42,1.42,0,0,1-.93-1.64h-.09C55.13,67.48,54,68,52.43,68,50.68,68,49.39,67.12,49.39,65.27Z"/><path class="b" d="M64.67,54.33h2L68,56l1.38-1.68h1.95l-2.76,3.46H67.32l-2.64-3.46M63.9,65.89l1.7-1.17c.06,1.06.79,1.66,2.08,1.66,1.08,0,1.55-.41,1.55-.91s-.21-.74-1.89-1C65,64.19,64.2,63.06,64.2,61.6c0-1.61,1.4-2.95,3.72-2.95,2.1,0,3.27.75,3.63,2.15l-1.66,1.1c0-1-.74-1.57-1.85-1.57-1,0-1.42.32-1.42.83s.25.7,1.76.91c2.49.32,3.42,1.34,3.42,3,0,1.89-1.64,2.95-4,2.95S64.24,67.17,63.9,65.89Z"/><polyline class="b" points="73.45 54.26 76.25 53.77 76.25 61.49 76.17 62.51 76.23 62.51 76.65 61.72 78.7 59 81.41 59 78.76 62.17 81.73 67.82 78.93 67.82 77.04 64.13 76.25 65.08 76.25 67.82 73.45 67.82 73.45 54.26"/><path class="b" d="M88.51,63.3c0-1.64-.47-2.83-1.74-2.83S85,61.66,85,63.3s.51,2.85,1.74,2.85S88.51,65,88.51,63.3m-6.36,0a4.64,4.64,0,1,1,9.27,0,4.64,4.64,0,1,1-9.27,0Z"/><polyline class="b" points="92.93 54.26 95.72 53.77 95.72 67.82 92.93 67.82 92.93 54.26"/><path class="b" d="M103,64.61V63.34c-1.76.11-2.91.55-2.91,1.74a1.13,1.13,0,0,0,1.27,1.19A1.51,1.51,0,0,0,103,64.61m-5.48.66c0-1.91,1.79-3.34,5.48-3.4,0-1-.55-1.53-1.64-1.53s-1.81.51-1.83,1.57l-1.53-1c.32-1.51,1.53-2.23,3.57-2.23,2.36,0,4.21,1,4.21,3.53v4a1,1,0,0,0,.57,1l-1.64.94a1.42,1.42,0,0,1-.93-1.64h-.09c-.42,1-1.55,1.57-3.12,1.57C98.78,68,97.5,67.12,97.5,65.27Z"/><path class="b" d="M119.64,63.36c0-1.66-.51-2.81-1.85-2.81a1.47,1.47,0,0,0-1.59,1.66v2.4a1.43,1.43,0,0,0,1.59,1.6c1.3,0,1.85-1.19,1.85-2.85m-6.23-2.7a1,1,0,0,0-.55-1l1.62-.95a1.47,1.47,0,0,1,.94,1.64h.08a2.73,2.73,0,0,1,2.66-1.64c2.68,0,4.38,1.89,4.38,4.72a4.3,4.3,0,0,1-4.36,4.65,2.52,2.52,0,0,1-2-.68v4.48h-2.79Z"/><path class="b" d="M130,63.34c0-1.64-.47-2.83-1.74-2.83s-1.74,1.19-1.74,2.83.51,2.85,1.74,2.85S130,65,130,63.34m-6.36,0a4.64,4.64,0,1,1,9.27,0,4.64,4.64,0,1,1-9.27,0Z"/><polyline class="b" points="134.28 54.29 137.08 53.8 137.08 67.85 134.28 67.85 134.28 54.29"/><path class="b" d="M147.43,59l-4.36,11.39A2.41,2.41,0,0,1,140.53,72a5.27,5.27,0,0,1-.78,0V70.18a1.4,1.4,0,0,0,.38,0,.93.93,0,0,0,.91-.72l.68-1.76a.46.46,0,0,1-.42-.3L138.09,59h3.1l1.59,5.31.15.79H143l.13-.79L144.76,59h2.66"/><path class="b" d="M148.71,64.68v-4h-1V59h1V56.86l2.82-.93V59h2.72v1.68h-2.72v3.93c0,1.11.3,1.53.83,1.53s.93-.23,1-1.08l1.27,1.23c-.19,1.09-1.13,1.77-2.63,1.77-2.25,0-3.29-1-3.29-3.42"/><path class="b" d="M161.37,61.83c0-.89-.45-1.51-1.68-1.51-.9,0-1.4.62-1.62,1.51h3.31M155,63.38a4.36,4.36,0,0,1,4.55-4.68c2.44,0,4.06,1.36,4.06,3.85a7.4,7.4,0,0,1-.07.85h-5.65v.32c0,1.08.43,2.49,1.83,2.49,1.21,0,1.8-.64,1.8-1.57l1.62,1.3c-.3,1.47-1.32,2.13-3.42,2.13A4.44,4.44,0,0,1,155,63.38Z"/><path class="b" d="M164.5,63.39c0-2.79,1.7-4.7,4.55-4.7,2.06,0,3.27.66,3.59,2.15L171.05,62c0-.83-.7-1.45-1.83-1.45s-1.81.87-1.81,2.85.81,2.81,1.81,2.81a1.61,1.61,0,0,0,1.83-1.55l1.59,1.27c-.32,1.49-1.34,2.15-3.42,2.15a4.39,4.39,0,0,1-4.72-4.68"/><path class="b" d="M173.93,54.29l2.81-.49v5.86a2.45,2.45,0,0,1,2.12-1c2,0,3.63,1.08,3.63,3.27v5.89h-2.81V62.32c0-1-.51-1.59-1.42-1.59a1.41,1.41,0,0,0-1.51,1.55v5.57h-2.81V54.29"/><path class="b" d="M184.82,60.67a1,1,0,0,0-.57-1.06l1.57-.93a1.46,1.46,0,0,1,.93,1.64h.08a2.89,2.89,0,0,1,2.89-1.64c2,0,3.66,1.1,3.66,3.27v5.89h-2.81V62.32c0-1-.51-1.59-1.44-1.59a1.45,1.45,0,0,0-1.51,1.64v5.48h-2.8V60.67"/><path class="b" d="M195.76,56.07a1.26,1.26,0,0,1,1.32-1.23,1.28,1.28,0,0,1,1.34,1.23,1.3,1.3,0,0,1-1.34,1.21,1.28,1.28,0,0,1-1.32-1.21m-.08,3h2.79v8.82h-2.79Z"/><path class="b" d="M200.08,63.39c0-2.79,1.7-4.7,4.55-4.7,2.06,0,3.27.66,3.59,2.15L206.64,62c0-.83-.7-1.45-1.83-1.45s-1.81.87-1.81,2.85.81,2.81,1.81,2.81a1.61,1.61,0,0,0,1.83-1.55l1.59,1.27c-.32,1.49-1.34,2.15-3.42,2.15a4.39,4.39,0,0,1-4.72-4.68"/><polyline class="b" points="209.51 54.29 212.31 53.8 212.31 61.53 212.23 62.55 212.29 62.55 212.7 61.75 214.76 59.03 217.46 59.03 214.82 62.21 217.78 67.85 214.99 67.85 213.1 64.17 212.31 65.11 212.31 67.85 209.51 67.85 209.51 54.29"/><path class="b" d="M223.53,54.37h2.55l-3.32,3.38H220.9l2.63-3.38m.27,10.28V63.38c-1.76.11-2.91.55-2.91,1.74a1.13,1.13,0,0,0,1.27,1.19A1.51,1.51,0,0,0,223.79,64.64Zm-5.48.66c0-1.91,1.79-3.34,5.48-3.4,0-1-.55-1.53-1.64-1.53s-1.81.51-1.83,1.57l-1.53-1c.32-1.51,1.53-2.23,3.57-2.23,2.36,0,4.21,1,4.21,3.53v4a1,1,0,0,0,.57,1l-1.64.94a1.42,1.42,0,0,1-.93-1.64h-.09c-.42,1-1.55,1.57-3.12,1.57C219.6,68.08,218.31,67.15,218.31,65.3Z"/><path class="b" d="M232.81,65.86l1.66-1.38a1.49,1.49,0,0,0,1.68,1.21c1,0,1.76-.36,1.76-1.85V54.38H241V64c0,2.49-1.64,4.06-4.76,4.06-1.72,0-3-.7-3.42-2.23"/><path class="b" d="M243.35,56.08a1.26,1.26,0,0,1,1.32-1.23A1.28,1.28,0,0,1,246,56.08a1.3,1.3,0,0,1-1.34,1.21,1.28,1.28,0,0,1-1.32-1.21m-.08,3h2.8v8.82h-2.8Z"/><path class="b" d="M248.51,54.3l2.82-.49v5.86a2.45,2.45,0,0,1,2.11-1c2,0,3.63,1.08,3.63,3.27v5.89h-2.81V62.33c0-1-.51-1.59-1.42-1.59a1.41,1.41,0,0,0-1.51,1.55v5.57h-2.82V54.3"/><polyline class="b" points="259.37 54.3 262.16 53.81 262.16 67.87 259.37 67.87 259.37 54.3"/><path class="b" d="M269.42,64.66V63.39c-1.76.11-2.91.55-2.91,1.74a1.13,1.13,0,0,0,1.26,1.19,1.51,1.51,0,0,0,1.64-1.66m-5.48.66c0-1.91,1.79-3.34,5.48-3.4,0-1-.55-1.53-1.64-1.53S266,60.9,265.94,62l-1.53-1c.32-1.51,1.53-2.23,3.57-2.23,2.36,0,4.21,1,4.21,3.53v4a1,1,0,0,0,.57,1l-1.64.94a1.43,1.43,0,0,1-.93-1.64h-.09c-.42,1-1.55,1.57-3.12,1.57C265.22,68.09,263.94,67.17,263.94,65.32Z"/><polyline class="b" points="273.05 59.05 276.15 59.05 277.74 64.35 277.89 65.15 277.98 65.15 278.11 64.35 279.72 59.05 282.38 59.05 279.02 67.86 276.43 67.86 273.05 59.05"/><path class="b" d="M288.2,64.66V63.39c-1.76.11-2.91.55-2.91,1.74a1.13,1.13,0,0,0,1.27,1.19,1.51,1.51,0,0,0,1.64-1.66m-5.48.66c0-1.91,1.79-3.34,5.48-3.4,0-1-.55-1.53-1.64-1.53s-1.81.51-1.83,1.57l-1.53-1c.32-1.51,1.53-2.23,3.57-2.23,2.36,0,4.21,1,4.21,3.53v4a1,1,0,0,0,.57,1l-1.64.94a1.42,1.42,0,0,1-.93-1.64h-.09c-.41,1-1.55,1.57-3.12,1.57C284,68.09,282.72,67.17,282.72,65.32Z"/></svg>